<svg width="544" height="544" viewBox="0 0 544 544" fill="none" xmlns="http://www.w3.org/2000/svg">
    <rect width="544" height="544" rx="200" fill="#D7EBF4"/>
    <path d="M110 412H435" stroke="#163252" stroke-width="24" stroke-linecap="round"/>
    <rect x="114" y="128" width="314" height="243" rx="4" fill="#50A5DC" stroke="#163252" stroke-width="24"/>
    <path d="M277.115 174.227L277.115 174.227C279.55 172.324 282.915 172.005 285.756 173.031C288.622 174.065 290.058 176.056 290.058 178.083V319.246C290.058 321.273 288.622 323.263 285.758 324.298C282.917 325.324 279.553 325.006 277.117 323.103L277.117 323.103L231.602 287.554C227.851 284.624 223.022 283.071 218.108 283.071H190.343C175.291 283.071 164.381 273.03 164.381 262.097V235.263C164.381 224.33 175.291 214.288 190.343 214.288H218.103C223.019 214.288 227.851 212.734 231.603 209.802L229.139 206.65L231.603 209.802L277.115 174.227Z" fill="#D7EBF4" stroke="#163252" stroke-width="8"/>
    <path d="M342.203 167.955C345.08 165.425 349.464 165.706 351.993 168.582C370.978 190.165 382.5 218.495 382.5 249.499C382.5 280.503 370.978 308.834 351.993 330.416C349.464 333.293 345.08 333.573 342.203 331.043C339.326 328.513 339.045 324.129 341.576 321.252C358.419 302.105 368.625 277.003 368.625 249.499C368.625 221.996 358.419 196.893 341.576 177.746C339.045 174.87 339.326 170.486 342.203 167.955Z" fill="#163252"/>
    <path d="M330.263 196.801C327.964 193.736 323.615 193.116 320.551 195.416C317.486 197.716 316.866 202.065 319.166 205.129C328.443 217.492 333.937 232.844 333.937 249.499C333.937 266.155 328.443 281.507 319.166 293.869C316.866 296.934 317.486 301.282 320.551 303.582C323.615 305.882 327.964 305.262 330.263 302.197C341.282 287.516 347.812 269.26 347.812 249.499C347.812 229.738 341.282 211.483 330.263 196.801Z" fill="#163252"/>
    <path d="M227 215L227 282" stroke="#163252" stroke-width="8" stroke-linecap="round"/>
</svg>
